<svg id="Layer_1" data-name="Layer 1" xmlns="http://www.w3.org/2000/svg" viewBox="0 0 511.75 511.74"><defs><style>.cls-1{fill:#fff;}.cls-2{fill:#abd6f3;}</style></defs><ellipse class="cls-1" cx="263.86" cy="257.67" rx="172.5" ry="166.88"/><path class="cls-2" d="M314.08,657.94H270.17a11.16,11.16,0,0,0-1.92-.52,250.85,250.85,0,0,1-116.79-41.11C62.77,557.65,19.17,452.47,41.77,348.55c30.09-138.28,164.75-226.64,302.7-196.42C444.53,174.05,509.09,237,539.18,335c4.54,14.81,6.47,30.16,8.44,45.47v43.91c-1.5,9.84-2.29,19.79-4.6,29.5Q507.49,603.25,361,649.14C345.74,653.94,329.9,656,314.08,657.94ZM312.74,471.8V431.39c0-8.31,0-8.33,8.13-8.33,27.44,0,54.89,0,82.33,0,9,0,15.72-4.06,19.44-12.31,6.22-13.82-3.74-28.79-19.24-28.86-27.61-.12-55.22,0-82.83,0-7.8,0-7.82,0-7.82-7.63q0-40.43,0-80.84a31.43,31.43,0,0,0-.52-6.93c-2.46-10.66-12.06-17.54-22.47-16.28s-18.16,10.05-18.19,21c-.08,27.45,0,54.89,0,82.34,0,8.31,0,8.32-8.12,8.33q-40.92,0-81.83,0a21.61,21.61,0,0,0-13.94,4.51A20.56,20.56,0,0,0,180.34,423c27.61.09,55.22,0,82.83.05,8.31,0,8.33,0,8.33,8.11q0,40.68,0,81.34c0,12.89,8.67,22.25,20.49,22.3s20.67-9.3,20.72-22.09C312.77,499.08,312.74,485.44,312.74,471.8Z" transform="translate(-35.88 -146.2)"/></svg>