<svg id="Layer_1" data-name="Layer 1" xmlns="http://www.w3.org/2000/svg" viewBox="0 0 365.84 384"><defs><style>.cls-1{fill:#bddaf6;}.cls-2{fill:#fee673;}.cls-3{fill:#b4d4f4;}.cls-4{fill:#feefa5;}.cls-5{fill:#edf6fe;}</style></defs><path class="cls-1" d="M843.75,732.75c-2.25-1.81-4.19-3.68-4.7-6.85-.43-2.63-2.49-4.23-5.16-4.84-3.63-.84-7.25-1.74-10.9-2.5-4.8-1-6.27-2.72-6.27-7.65,0-2.62,0-5.24,0-7.86,0-3.53-1.79-5.6-5.18-6.27-4.14-.82-8.3-1.55-12.44-2.34-5.25-1-7.13-3.31-7.12-8.72,0-4,0-8,.06-12,.08-5.9-.53-6.79-6.08-8.63-.94-.31-1.9-.6-2.83-1-6-2.4-7.27-7.6-2.46-11.93,8-7.25,16.32-14.24,24.55-21.29q14.31-12.27,28.7-24.47l34.39-29.31c1.33-1.13,2.59-2.33,3.89-3.5,1,.5,1.25,1.42,1.66,2.35,2.6,5.94,5.35,11.8,7.94,17.74,1.57,3.6,4.35,5.15,8,4.66s5.62-2.72,6.5-6.59c7.06-31.27,26.27-51.2,57-60,4.63-1.32,9.1-2.44,11.83-6.84,1.09,1,1.21,2.4,1.54,3.71,1.91,7.39,5.14,14.24,8.53,21,4.66,9.32,11,17.48,17.88,25.14,5.72,6.34,11.8,12.42,19.24,16.86,0,.22,0,.44,0,.66-6.09.12-12.19-.3-18.24.84-19.92,3.73-35.76,13.67-47,30.7a94.64,94.64,0,0,0-15.74,38.2c-5.23,3.19-9.37,7.71-14,11.62-13.87,11.71-27.6,23.59-41.36,35.44-8,6.9-16,13.87-24,20.77-1.2,1-2.57,1.87-3.86,2.79Z" transform="translate(-777.74 -348.75)"/><path class="cls-2" d="M871.41,433.46c.81-5.76,4.24-10.35,7.1-15.1a107.38,107.38,0,0,1,27-30.74,10.57,10.57,0,0,0,3.1-4.57c3.58-8.11,7.35-16.14,10.63-24.36,1.76-4.39,4.31-7.76,8.46-9.94h6c7.36,4.22,8.76,7.81,7.25,16.31-1.3,7.33-3.64,14.52-3.54,22.08a18.83,18.83,0,0,0,7.37,15.28c9.72,7.59,13,18.19,14.42,29.76,1.2,9.7.89,19.44.78,29.16-.14,12.23.43,24.44.84,36.66-7,.07-13.91-.24-20.82,1.05a76.39,76.39,0,0,0-46.87,28.13c-1-.85-1.18-2.09-1.51-3.3A215.84,215.84,0,0,1,884.89,484a187.29,187.29,0,0,1,.8-39.75c.88-6.31-1.8-10.54-7.41-11.89C875.8,431.78,873.74,433.35,871.41,433.46Z" transform="translate(-777.74 -348.75)"/><path class="cls-3" d="M1012.39,591.73c-7.44-4.44-13.52-10.52-19.24-16.86-6.9-7.66-13.22-15.82-17.88-25.14-3.39-6.79-6.62-13.64-8.53-21-.33-1.31-.45-2.71-1.54-3.71-1.42-9-3.89-17.8-3.76-27q18.79-16,37.59-31.94,19.79-16.83,39.55-33.68c3.89-3.32,7.68-6.75,11.66-9.95,4.49-3.62,9.79-1.76,11.21,3.8.33,1.33.52,2.69.86,4,1.16,4.52,3.28,6.17,8,6.25,2.25.05,4.5,0,6.75.07,5.54.29,8.12,3,8.17,8.54,0,2.5,0,5,0,7.5,0,5.73,2.26,8.17,8,8.6,1.37.11,2.76,0,4.12.13,4.9.58,7.25,3.22,7.38,8.19a2.41,2.41,0,0,1,0,.38c-1.5,9.42,2.21,14.91,11.63,17.56,7.31,2.05,7.83,8.31,2.08,13.19-13.39,11.37-26.6,23-39.93,34.41-13.13,11.28-26.34,22.48-39.49,33.75Q1025.69,580.24,1012.39,591.73Z" transform="translate(-777.74 -348.75)"/><path class="cls-2" d="M947.18,623.93c11.22-17,27.06-27,47-30.7,6.05-1.14,12.15-.72,18.24-.84,16.59,13.35,35.24,23,55,30.78s40.53,12.05,61.69,14.33c7.08.76,11.56,5.24,13.62,11.78,2.15,6.8.45,13.05-5.14,17.52-25.07,20-53.2,33.24-85.27,37.31a76.37,76.37,0,0,1-16.42.8c3.57-1.38,7.27-2.58,9.64-5.9,7.26-10.17,2.41-22.71-10.15-25.21a157.75,157.75,0,0,1-63.26-28A163.2,163.2,0,0,1,947.18,623.93Z" transform="translate(-777.74 -348.75)"/><path class="cls-4" d="M947.18,623.93a163.2,163.2,0,0,0,24.9,21.84,157.75,157.75,0,0,0,63.26,28c12.56,2.5,17.41,15,10.15,25.21-2.37,3.32-6.07,4.52-9.64,5.9-25.43.68-48.82-6.41-70.88-18.58-12.16-6.71-23-15.25-33.53-24.2A94.64,94.64,0,0,1,947.18,623.93Z" transform="translate(-777.74 -348.75)"/><path class="cls-5" d="M961.44,498c-.13,9.19,2.34,18,3.76,27-2.73,4.4-7.2,5.52-11.83,6.84-30.72,8.78-49.93,28.71-57,60-.88,3.87-2.81,6.1-6.5,6.59s-6.48-1.06-8-4.66c-2.59-5.94-5.34-11.8-7.94-17.74-.41-.93-.69-1.85-1.66-2.35,0-.25,0-.49,0-.74.17-.18.45-.33.49-.53a109.21,109.21,0,0,1,20.42-45.2,76.39,76.39,0,0,1,46.87-28.13c6.91-1.29,13.86-1,20.82-1.05Z" transform="translate(-777.74 -348.75)"/><path class="cls-4" d="M893.18,527.18a109.21,109.21,0,0,0-20.42,45.2c0,.2-.32.35-.49.53-5-15.11-9.28-30.38-11.56-46.18a213.41,213.41,0,0,1-1.31-48,145.46,145.46,0,0,1,8.94-39.83,15.44,15.44,0,0,1,2.24-4.66l.91-.79h-.08c2.33-.11,4.39-1.68,6.87-1.08,5.61,1.35,8.29,5.58,7.41,11.89a187.29,187.29,0,0,0-.8,39.75,215.84,215.84,0,0,0,6.78,39.86C892,525.09,892.13,526.33,893.18,527.18Z" transform="translate(-777.74 -348.75)"/><path class="cls-2" d="M871.49,433.46l-.91.79Z" transform="translate(-777.74 -348.75)"/></svg>