<svg id="Layer_1" data-name="Layer 1" xmlns="http://www.w3.org/2000/svg" viewBox="0 0 360.26 409.21"><defs><style>.cls-1{opacity:0.49;}.cls-2{fill:#8c715e;}</style></defs><g class="cls-1"><path class="cls-2" d="M359.75,305.7c7.16,2.26,13.93,5.22,19.14,10.93a36.23,36.23,0,0,1,9.91,25.75c-.13,10.95,0,10.95,11.1,10.95,16.1,0,32.19,0,48.29,0,17.85.06,31.95,11.6,35.87,29.26,3.53,15.91-5.25,32.94-20.81,40-2.59,1.17-3.36,2.68-3.57,5.42-1.37,17.74-3,35.45-4.5,53.18-1.18,14.16-2.23,28.33-3.4,42.49-1.21,14.69-2.5,29.37-3.73,44.06-.9,10.72-1.74,21.44-2.63,32.16q-1.87,22.62-3.79,45.25c-.9,11-2,22-2.56,33-.89,18.06-12.16,32-29.5,36.08a35.93,35.93,0,0,1-8.33.58c-64.39,0-128.79-.2-193.17.15-17.72.1-36.3-12.78-37.83-36.41-1.19-18.28-3-36.52-4.54-54.78-1.18-14.43-2.24-28.86-3.43-43.29-1.46-17.6-3-35.19-4.5-52.78-.93-11.12-1.75-22.24-2.67-33.36-1.2-14.56-2.46-29.11-3.68-43.66-.64-7.54-1.4-15.08-1.79-22.64-.15-2.76-1-4.25-3.58-5.41a36.18,36.18,0,0,1-21.11-38.4c2.08-15.13,14.86-28.1,30.21-30.54a43.49,43.49,0,0,1,6.76-.29q24,0,47.9,0c10.71,0,10.82,0,10.69-10.56a36,36,0,0,1,3.27-16.25c4.71-9.89,12.25-16.56,22.82-19.68,1-.29,2-.76,3-1.14Zm-54.66,120H186.57c-2.92,0-5.85.07-8.78,0-2.2-.06-3.23.82-3,3.06.11,1.32.13,2.66.24,4,1.24,14.68,2.52,29.36,3.73,44.05,1.17,14.16,2.25,28.32,3.41,42.48,1.24,15.08,2.56,30.16,3.81,45.24.89,10.72,1.71,21.45,2.61,32.16,1.23,14.69,2.52,29.37,3.76,44,1.1,13.1,2.11,26.2,3.29,39.29.41,4.49,4.15,8.41,8.52,9.51a28.86,28.86,0,0,0,7.12.74q93.38,0,186.76,0a28.9,28.9,0,0,0,7.12-.72,11.48,11.48,0,0,0,8.64-9.84q2.46-28,4.78-56c1.47-17.87,2.74-35.75,4.23-53.61,2-23.81,4.13-47.61,6.14-71.43,1.9-22.35,3.7-44.71,5.58-67.07.47-5.67.3-5.93-5.28-5.93Zm-.48-47.91q-69.65,0-139.28,0a26.14,26.14,0,0,0-7.88.93,11.18,11.18,0,0,0-7.56,13.19c1.42,6.24,6.07,9.3,14.34,9.3q140.48,0,280.94,0a22.61,22.61,0,0,0,6.3-.82,11.28,11.28,0,0,0-.08-21.82,27.15,27.15,0,0,0-7.51-.79Q374.24,377.85,304.61,377.83Zm.06-24.5q26.32,0,52.64,0c7.78,0,6.93.79,6.94-7.14,0-12.13-4.13-16.25-16.34-16.25H263.76c-15.48,0-18.67,3.32-18.81,18.67,0,4,1.4,4.84,5.08,4.8C268.24,353.24,286.45,353.33,304.67,353.33Z" transform="translate(-124.58 -305.7)"/><path class="cls-2" d="M257.06,649.78c-.18,3.34.28,5.89-.44,8.37-1.67,5.72-6.91,9.15-13.19,8.68a11.78,11.78,0,0,1-10.82-10.52c-1-11.12-1.67-22.25-2.39-33.39q-2-30.81-3.87-61.64c-.91-15.12-1.68-30.25-2.61-45.37-.92-14.84-2-29.68-2.93-44.53-.22-3.45-.29-6.91-.23-10.37a11.88,11.88,0,0,1,11.16-11.84c6.91-.38,12.61,3.91,13.2,10.53,1,11.11,1.69,22.25,2.41,33.38q2,30.82,3.86,61.65c.93,15.38,1.69,30.78,2.63,46.16C254.86,617.46,256,634,257.06,649.78Z" transform="translate(-124.58 -305.7)"/><path class="cls-2" d="M352.19,650.58q1.59-23.87,3.18-47.72c.61-9.55,1.13-19.1,1.73-28.65Q359,543.39,361,512.57c.87-14.06,1.67-28.12,2.53-42.18.22-3.58.4-7.17.84-10.72.81-6.59,6.35-10.89,13.26-10.5A11.63,11.63,0,0,1,388.68,461c-.4,12.35-1.13,24.68-1.85,37-.6,10.21-1.41,20.41-2.07,30.61q-2,31-3.89,62.05c-.89,14.45-1.66,28.91-2.55,43.37-.43,7.16-.87,14.32-1.56,21.46-.71,7.33-6,11.7-13.31,11.29-6.48-.36-11.08-5.58-11.15-12.66,0-1.2,0-2.4,0-3.6Z" transform="translate(-124.58 -305.7)"/><path class="cls-2" d="M316.9,558.23q0,48.07,0,96.15c0,9.83-9.85,15.69-18.24,11a11.41,11.41,0,0,1-6.21-10.42c0-5.32,0-10.64,0-16q0-88.17,0-176.35c0-8.45,5-13.67,12.76-13.47a11.8,11.8,0,0,1,11.69,11.71c.13,8.65,0,17.29,0,25.94Z" transform="translate(-124.58 -305.7)"/></g></svg>